<?xml version="1.0" encoding="UTF-8"?>
<svg version="1.1" xmlns="http://www.w3.org/2000/svg" width="200" height="200">
<path d="M0 0 C22.37068425 17.16737636 36.41193661 40.26682144 40.59375 68.26953125 C42.52195017 98.57817826 35.93635867 125.07483386 15.59375 148.26953125 C-0.78214802 166.62500078 -24.25069632 179.86002121 -49.18847656 181.4465332 C-81.42979312 182.13773328 -106.96320104 174.62344811 -130.92358398 152.13989258 C-148.77375715 134.86507655 -159.279725 110.18682919 -159.69897461 85.41162109 C-159.87661015 54.94164261 -150.15393309 30.29155554 -128.78125 8.20703125 C-94.70478287 -25.84777596 -38.32981767 -27.56511238 0 0 Z M-116.40625 18.26953125 C-117.16550781 18.9346875 -117.92476562 19.59984375 -118.70703125 20.28515625 C-133.77663942 34.33971309 -143.49000571 55.71378972 -144.40625 76.26953125 C-144.44621094 76.9346875 -144.48617187 77.59984375 -144.52734375 78.28515625 C-145.22621812 100.48469511 -137.11030042 121.76893331 -122.40625 138.26953125 C-121.74109375 139.02878906 -121.0759375 139.78804687 -120.390625 140.5703125 C-106.33606816 155.63992067 -84.96199153 165.35328696 -64.40625 166.26953125 C-63.74109375 166.30949219 -63.0759375 166.34945312 -62.390625 166.390625 C-40.19108614 167.08949937 -18.90684794 158.97358167 -2.40625 144.26953125 C-1.64699219 143.604375 -0.88773438 142.93921875 -0.10546875 142.25390625 C14.96413942 128.19934941 24.67750571 106.82527278 25.59375 86.26953125 C25.63371094 85.604375 25.67367187 84.93921875 25.71484375 84.25390625 C26.41371812 62.05436739 18.29780042 40.77012919 3.59375 24.26953125 C2.59601563 23.13064453 2.59601563 23.13064453 1.578125 21.96875 C-12.47643184 6.89914183 -33.85050847 -2.81422446 -54.40625 -3.73046875 C-55.07140625 -3.77042969 -55.7365625 -3.81039063 -56.421875 -3.8515625 C-78.62141386 -4.55043687 -99.90565206 3.56548083 -116.40625 18.26953125 Z " fill="#5D7CCB" transform="translate(159.40625,18.73046875)"/>
<path d="M0 0 C6.93 0 13.86 0 21 0 C21 21.12 21 42.24 21 64 C17.04 64 13.08 64 9 64 C9 46.51 9 29.02 9 11 C6.03 11 3.06 11 0 11 C0 7.37 0 3.74 0 0 Z " fill="#5C7BCC" transform="translate(87,80)"/>
<path d="M0 0 C2.48836965 3.73255448 2.54226552 5.58440935 2 10 C-0.0625 12.5 -0.0625 12.5 -3 14 C-6.46758942 13.94021398 -8.88826749 13.60965977 -11.9375 11.9375 C-13.680718 8.75869071 -13.55314346 5.53274287 -13 2 C-9.5361872 -3.11324746 -5.19661569 -1.88967843 0 0 Z " fill="#5C7ACB" transform="translate(108,58)"/>
</svg>
